<?xml version="1.0" encoding="UTF-8"?>
<!DOCTYPE svg PUBLIC "-//W3C//DTD SVG 1.1//EN" "http://www.w3.org/Graphics/SVG/1.1/DTD/svg11.dtd">
<svg xmlns="http://www.w3.org/2000/svg" version="1.1" width="262px" height="221px" style="shape-rendering:geometricPrecision; text-rendering:geometricPrecision; image-rendering:optimizeQuality; fill-rule:evenodd; clip-rule:evenodd" xmlns:xlink="http://www.w3.org/1999/xlink">
<g><path style="opacity:0.004" fill="#fefffe" d="M 114.5,-0.5 C 114.833,-0.5 115.167,-0.5 115.5,-0.5C 115.315,0.170143 114.981,0.170143 114.5,-0.5 Z"/></g>
<g><path style="opacity:0.004" fill="#fefffe" d="M 246.5,-0.5 C 246.833,-0.5 247.167,-0.5 247.5,-0.5C 247.315,0.170143 246.981,0.170143 246.5,-0.5 Z"/></g>
<g><path style="opacity:0.004" fill="#fefffe" d="M 174.5,0.5 C 175.833,1.16667 175.833,1.16667 174.5,0.5 Z"/></g>
<g><path style="opacity:0.004" fill="#fefffe" d="M 65.5,9.5 C 66.8333,10.1667 66.8333,10.1667 65.5,9.5 Z"/></g>
<g><path style="opacity:0.004" fill="#fefffe" d="M 157.5,9.5 C 158.833,10.1667 158.833,10.1667 157.5,9.5 Z"/></g>
<g><path style="opacity:0.004" fill="#fefffe" d="M 191.5,15.5 C 192.833,16.1667 192.833,16.1667 191.5,15.5 Z"/></g>
<g><path style="opacity:0.004" fill="#fefffe" d="M 190.5,17.5 C 191.833,18.1667 191.833,18.1667 190.5,17.5 Z"/></g>
<g><path style="opacity:0.004" fill="#fefffe" d="M 237.5,17.5 C 238.833,18.1667 238.833,18.1667 237.5,17.5 Z"/></g>
<g><path style="opacity:0.004" fill="#fefffe" d="M 131.5,19.5 C 132.833,20.1667 132.833,20.1667 131.5,19.5 Z"/></g>
<g><path style="opacity:0.004" fill="#fefffe" d="M 135.5,19.5 C 136.833,20.1667 136.833,20.1667 135.5,19.5 Z"/></g>
<g><path style="opacity:0.004" fill="#fefffe" d="M 53.5,20.5 C 54.8333,21.1667 54.8333,21.1667 53.5,20.5 Z"/></g>
<g><path style="opacity:0.004" fill="#fefffe" d="M 102.5,22.5 C 103.833,23.1667 103.833,23.1667 102.5,22.5 Z"/></g>
<g><path style="opacity:0.004" fill="#fefffe" d="M 204.5,25.5 C 205.833,26.1667 205.833,26.1667 204.5,25.5 Z"/></g>
<g><path style="opacity:0.004" fill="#fefffe" d="M 36.5,28.5 C 37.8333,29.1667 37.8333,29.1667 36.5,28.5 Z"/></g>
<g><path style="opacity:1" fill="#1b2866" d="M 243.5,40.5 C 242.078,41.925 240.411,42.925 238.5,43.5C 238.321,41.636 238.821,39.636 240,37.5C 244.186,38.6497 245.852,36.983 245,32.5C 244.612,31.572 243.945,30.9054 243,30.5C 237.664,34.3427 232.497,38.3427 227.5,42.5C 231.664,37.5032 236.331,33.0032 241.5,29C 244.608,27.2415 247.941,26.4081 251.5,26.5C 251.628,28.6547 251.128,30.6547 250,32.5C 247.585,35.014 245.419,37.6806 243.5,40.5 Z"/></g>
<g><path style="opacity:0.004" fill="#fefffe" d="M 140.5,31.5 C 141.833,32.1667 141.833,32.1667 140.5,31.5 Z"/></g>
<g><path style="opacity:0.004" fill="#fefffe" d="M 100.5,33.5 C 101.833,34.1667 101.833,34.1667 100.5,33.5 Z"/></g>
<g><path style="opacity:1" fill="#1e2756" d="M 202.5,36.5 C 197.967,35.3555 193.301,34.6888 188.5,34.5C 188.5,35.5 188.5,36.5 188.5,37.5C 185.611,37.001 184.944,35.501 186.5,33C 192.247,32.6054 197.58,33.7721 202.5,36.5 Z"/></g>
<g><path style="opacity:0.004" fill="#fefffe" d="M 118.5,35.5 C 119.833,36.1667 119.833,36.1667 118.5,35.5 Z"/></g>
<g><path style="opacity:0.004" fill="#fefffe" d="M 122.5,39.5 C 123.833,40.1667 123.833,40.1667 122.5,39.5 Z"/></g>
<g><path style="opacity:0.004" fill="#fefffe" d="M 184.5,39.5 C 185.833,40.1667 185.833,40.1667 184.5,39.5 Z"/></g>
<g><path style="opacity:0.004" fill="#fefffe" d="M 107.5,40.5 C 108.833,41.1667 108.833,41.1667 107.5,40.5 Z"/></g>
<g><path style="opacity:0.004" fill="#fefffe" d="M 243.5,40.5 C 244.833,41.1667 244.833,41.1667 243.5,40.5 Z"/></g>
<g><path style="opacity:0.004" fill="#fefffe" d="M 61.5,48.5 C 62.8333,49.1667 62.8333,49.1667 61.5,48.5 Z"/></g>
<g><path style="opacity:0.004" fill="#fefffe" d="M 168.5,50.5 C 169.833,51.1667 169.833,51.1667 168.5,50.5 Z"/></g>
<g><path style="opacity:0.004" fill="#fefffe" d="M 174.5,50.5 C 175.833,51.1667 175.833,51.1667 174.5,50.5 Z"/></g>
<g><path style="opacity:0.004" fill="#fefffe" d="M 64.5,52.5 C 65.8333,53.1667 65.8333,53.1667 64.5,52.5 Z"/></g>
<g><path style="opacity:1" fill="#1a2c80" d="M 238.5,43.5 C 236.833,45.8333 234.833,47.8333 232.5,49.5C 228.971,50.6092 228.638,52.4425 231.5,55C 232.938,55.2189 234.271,55.7189 235.5,56.5C 233.929,58.8822 233.096,61.5488 233,64.5C 232.667,64.8333 232.333,65.1667 232,65.5C 231.059,63.9386 229.892,62.6053 228.5,61.5C 228.401,65.1693 229.734,68.5027 232.5,71.5C 233.807,69.1933 235.14,69.36 236.5,72C 236,73.8333 234.833,75 233,75.5C 231.271,73.5989 229.438,71.9322 227.5,70.5C 227.167,69.8333 226.833,69.1667 226.5,68.5C 226.628,66.3453 226.128,64.3453 225,62.5C 224.586,62.9574 224.086,63.2907 223.5,63.5C 222.389,62.3887 221.055,61.722 219.5,61.5C 216.987,61.9613 214.32,61.9613 211.5,61.5C 211.624,59.048 212.624,57.048 214.5,55.5C 214.457,54.5836 214.124,53.9169 213.5,53.5C 205.162,48.1591 196.828,42.8257 188.5,37.5C 188.5,36.5 188.5,35.5 188.5,34.5C 193.301,34.6888 197.967,35.3555 202.5,36.5C 205.68,37.3928 208.846,38.3928 212,39.5C 213.285,39.0496 214.452,38.3829 215.5,37.5C 217.071,38.3094 218.738,38.6427 220.5,38.5C 220.714,40.1439 220.38,41.6439 219.5,43C 222.412,45.058 225.079,44.8914 227.5,42.5C 232.497,38.3427 237.664,34.3427 243,30.5C 243.945,30.9054 244.612,31.572 245,32.5C 245.852,36.983 244.186,38.6497 240,37.5C 238.821,39.636 238.321,41.636 238.5,43.5 Z"/></g>
<g><path style="opacity:0.004" fill="#fefffe" d="M 214.5,35.5 C 215.833,36.1667 215.833,36.1667 214.5,35.5 Z"/></g>
<g><path style="opacity:0.004" fill="#fefffe" d="M 206.5,34.5 C 207.833,35.1667 207.833,35.1667 206.5,34.5 Z"/></g>
<g><path style="opacity:0.988" fill="#19347c" d="M 123.5,48.5 C 126.167,48.5 128.833,48.5 131.5,48.5C 129.369,49.3138 127.036,49.8138 124.5,50C 122.884,50.6152 121.551,51.6152 120.5,53C 115.041,53.7743 110.041,55.6076 105.5,58.5C 104.082,56.6921 102.082,56.0254 99.5,56.5C 99.3601,58.1238 100.027,59.2904 101.5,60C 99.4686,61.7408 97.3019,61.9074 95,60.5C 92.6257,61.8653 90.1257,62.8653 87.5,63.5C 97.8176,54.6807 109.818,49.6807 123.5,48.5 Z"/></g>
<g><path style="opacity:1" fill="#0491db" d="M 131.5,48.5 C 133.199,48.3398 134.866,48.5065 136.5,49C 138.822,50.9235 141.489,52.2569 144.5,53C 145.551,54.3848 146.884,55.3848 148.5,56C 147.259,57.4865 147.759,58.3199 150,58.5C 151.895,58.3852 153.562,57.7185 155,56.5C 157.041,57.4231 159.208,57.7564 161.5,57.5C 161.975,60.0821 161.308,62.0821 159.5,63.5C 159.5,63.1667 159.5,62.8333 159.5,62.5C 159.5,61.8333 159.167,61.5 158.5,61.5C 158.5,60.8333 158.167,60.5 157.5,60.5C 157.565,60.0618 157.399,59.7284 157,59.5C 154.895,62.1066 154.062,65.1066 154.5,68.5C 157.747,68.4152 160.581,69.4152 163,71.5C 163.688,72.3317 163.521,72.9984 162.5,73.5C 161.232,72.5721 159.899,72.4054 158.5,73C 160.368,76.0418 162.035,79.2084 163.5,82.5C 164.5,82.8333 165.5,83.1667 166.5,83.5C 169.067,82.1616 171.734,81.6616 174.5,82C 173.619,82.7083 172.953,83.5416 172.5,84.5C 170.617,88.4131 169.284,92.7464 168.5,97.5C 170.04,99.7284 171.54,102.062 173,104.5C 173.781,105.944 173.614,107.277 172.5,108.5C 169.501,106.666 167.001,104.333 165,101.5C 163.566,101.93 162.399,102.764 161.5,104C 162.701,104.903 163.535,106.069 164,107.5C 165.011,106.663 166.178,106.33 167.5,106.5C 167.286,108.144 167.62,109.644 168.5,111C 167.062,111.219 165.729,111.719 164.5,112.5C 165.63,113.622 166.297,114.956 166.5,116.5C 163.464,117.362 161.131,119.196 159.5,122C 155.541,121.791 153.874,123.625 154.5,127.5C 151.612,127.22 150.112,128.553 150,131.5C 147.107,134.424 145.94,134.09 146.5,130.5C 145.902,129.205 145.402,127.872 145,126.5C 144.25,127.126 143.416,127.626 142.5,128C 143.406,129.699 143.739,131.533 143.5,133.5C 141.473,133.338 139.473,133.505 137.5,134C 136.122,137.429 133.789,138.263 130.5,136.5C 129.319,134.865 129.319,133.198 130.5,131.5C 129.675,130.614 128.675,130.281 127.5,130.5C 127.89,133.839 128.39,137.173 129,140.5C 129.739,141.574 130.739,142.241 132,142.5C 133.656,141.235 135.323,139.901 137,138.5C 137.667,140.167 137.667,141.833 137,143.5C 134.603,146.4 131.77,148.733 128.5,150.5C 126.474,149.63 125.141,148.13 124.5,146C 122.253,144.691 119.92,144.025 117.5,144C 120.206,146.706 122.873,149.373 125.5,152C 124.66,153.171 123.827,154.338 123,155.5C 122.667,155.167 122.333,154.833 122,154.5C 119.832,156.455 117.498,157.121 115,156.5C 114.289,158.367 114.789,159.867 116.5,161C 115.29,162.039 114.29,163.206 113.5,164.5C 111.909,166.633 109.909,168.299 107.5,169.5C 106.127,169.343 104.793,169.51 103.5,170C 100.024,173.48 96.0242,176.147 91.5,178C 89.1527,178.334 86.8194,178.167 84.5,177.5C 84.5,176.5 84.5,175.5 84.5,174.5C 85.552,174.649 86.552,174.483 87.5,174C 82.786,170.692 77.9526,171.192 73,175.5C 72.3292,174.748 71.4959,174.414 70.5,174.5C 70.7358,172.951 70.7358,171.451 70.5,170C 77.4714,170.051 82.8047,167.051 86.5,161C 87.9308,160.535 89.0975,159.701 90,158.5C 90.3333,158.833 90.6667,159.167 91,159.5C 91.4828,158.552 91.6495,157.552 91.5,156.5C 84.3383,158.046 77.0049,159.046 69.5,159.5C 69.5,158.833 69.1667,158.5 68.5,158.5C 67.7353,152.328 66.402,146.328 64.5,140.5C 69.9213,142.709 75.2546,145.209 80.5,148C 84.1875,148.45 87.8542,148.283 91.5,147.5C 91.0798,149.674 91.0798,151.674 91.5,153.5C 94.2369,151.898 97.2369,151.064 100.5,151C 102.016,149.103 102.683,146.936 102.5,144.5C 99.1667,144.5 95.8333,144.5 92.5,144.5C 92.8076,142.076 92.4742,139.743 91.5,137.5C 89.2837,138.966 87.2837,140.633 85.5,142.5C 80.8654,139.905 79.6987,136.238 82,131.5C 84.4449,130.023 86.6116,128.19 88.5,126C 91.1738,126.153 93.8405,126.653 96.5,127.5C 96.5567,125.116 96.2234,122.782 95.5,120.5C 97.9588,115.903 99.4588,110.903 100,105.5C 105.63,102.036 110.463,97.7023 114.5,92.5C 113.5,91.8333 112.5,91.1667 111.5,90.5C 110.134,87.3075 109.301,83.9742 109,80.5C 108.261,79.4258 107.261,78.7591 106,78.5C 101.873,79.2392 97.706,79.7392 93.5,80C 92.1969,83.4684 92.1969,86.9684 93.5,90.5C 90.5884,91.0685 87.5884,91.0685 84.5,90.5C 84.5,88.5 84.5,86.5 84.5,84.5C 85.8221,84.67 86.9887,84.3366 88,83.5C 89.1579,75.9039 93.6579,72.5706 101.5,73.5C 102.803,69.5988 101.47,66.7655 97.5,65C 100.014,62.5855 102.681,60.4188 105.5,58.5C 110.041,55.6076 115.041,53.7743 120.5,53C 121.551,51.6152 122.884,50.6152 124.5,50C 127.036,49.8138 129.369,49.3138 131.5,48.5 Z"/></g>
<g><path style="opacity:0.004" fill="#fefffe" d="M 200.5,56.5 C 201.833,57.1667 201.833,57.1667 200.5,56.5 Z"/></g>
<g><path style="opacity:0.004" fill="#feff00" d="M 73.5,57.5 C 74.8333,58.1667 74.8333,58.1667 73.5,57.5 Z"/></g>
<g><path style="opacity:1" fill="#178ac7" d="M 123.5,48.5 C 141.11,46.5617 157.776,50.0617 173.5,59C 178.44,61.9395 182.774,65.6061 186.5,70C 186.355,70.772 186.022,71.4387 185.5,72C 182.242,72.7862 179.576,74.2862 177.5,76.5C 177.989,77.9952 178.655,79.3285 179.5,80.5C 177.192,81.7928 174.858,83.1261 172.5,84.5C 172.953,83.5416 173.619,82.7083 174.5,82C 171.734,81.6616 169.067,82.1616 166.5,83.5C 165.5,83.1667 164.5,82.8333 163.5,82.5C 162.035,79.2084 160.368,76.0418 158.5,73C 159.899,72.4054 161.232,72.5721 162.5,73.5C 163.521,72.9984 163.688,72.3317 163,71.5C 160.581,69.4152 157.747,68.4152 154.5,68.5C 154.062,65.1066 154.895,62.1066 157,59.5C 157.399,59.7284 157.565,60.0618 157.5,60.5C 158.167,60.5 158.5,60.8333 158.5,61.5C 159.167,61.5 159.5,61.8333 159.5,62.5C 158.167,62.8333 158.167,63.1667 159.5,63.5C 161.308,62.0821 161.975,60.0821 161.5,57.5C 159.208,57.7564 157.041,57.4231 155,56.5C 153.562,57.7185 151.895,58.3852 150,58.5C 147.759,58.3199 147.259,57.4865 148.5,56C 146.884,55.3848 145.551,54.3848 144.5,53C 141.489,52.2569 138.822,50.9235 136.5,49C 134.866,48.5065 133.199,48.3398 131.5,48.5C 128.833,48.5 126.167,48.5 123.5,48.5 Z M 165.5,62.5 C 169.441,64.1396 173.108,66.3063 176.5,69C 170.196,71.583 169.862,74.9163 175.5,79C 172.828,79.8344 170.161,80.6677 167.5,81.5C 166.167,79.5 164.833,77.5 163.5,75.5C 165.184,74.1456 165.684,72.4789 165,70.5C 162.417,69.1258 159.917,67.6258 157.5,66C 158,65.5 158.5,65 159,64.5C 160.481,67.0799 162.648,67.9132 165.5,67C 165.966,65.7012 165.966,64.2012 165.5,62.5 Z"/></g>
<g><path style="opacity:0.004" fill="#fefffe" d="M 197.5,67.5 C 198.833,68.1667 198.833,68.1667 197.5,67.5 Z"/></g>
<g><path style="opacity:0.004" fill="#fefffe" d="M 14.5,69.5 C 15.8333,70.1667 15.8333,70.1667 14.5,69.5 Z"/></g>
<g><path style="opacity:1" fill="#1d2c73" d="M 232.5,49.5 C 232.047,50.4584 231.381,51.2917 230.5,52C 233.397,53.3776 236.064,55.0443 238.5,57C 236.643,58.1824 235.643,59.849 235.5,62C 236.953,68.7391 239.12,75.2391 242,81.5C 242.847,84.5876 242.347,87.4209 240.5,90C 239.668,90.6877 239.002,90.521 238.5,89.5C 235.074,82.9756 231.408,76.6423 227.5,70.5C 229.438,71.9322 231.271,73.5989 233,75.5C 234.833,75 236,73.8333 236.5,72C 235.14,69.36 233.807,69.1933 232.5,71.5C 229.734,68.5027 228.401,65.1693 228.5,61.5C 229.892,62.6053 231.059,63.9386 232,65.5C 232.333,65.1667 232.667,64.8333 233,64.5C 233.096,61.5488 233.929,58.8822 235.5,56.5C 234.271,55.7189 232.938,55.2189 231.5,55C 228.638,52.4425 228.971,50.6092 232.5,49.5 Z"/></g>
<g><path style="opacity:1" fill="#173088" d="M 105.5,58.5 C 102.681,60.4188 100.014,62.5855 97.5,65C 101.47,66.7655 102.803,69.5988 101.5,73.5C 93.6579,72.5706 89.1579,75.9039 88,83.5C 86.9887,84.3366 85.8221,84.67 84.5,84.5C 84.5,86.5 84.5,88.5 84.5,90.5C 87.5884,91.0685 90.5884,91.0685 93.5,90.5C 92.1969,86.9684 92.1969,83.4684 93.5,80C 97.706,79.7392 101.873,79.2392 106,78.5C 107.261,78.7591 108.261,79.4258 109,80.5C 109.301,83.9742 110.134,87.3075 111.5,90.5C 112.5,91.1667 113.5,91.8333 114.5,92.5C 110.463,97.7023 105.63,102.036 100,105.5C 99.4588,110.903 97.9588,115.903 95.5,120.5C 96.2234,122.782 96.5567,125.116 96.5,127.5C 93.8405,126.653 91.1738,126.153 88.5,126C 86.6116,128.19 84.4449,130.023 82,131.5C 79.6987,136.238 80.8654,139.905 85.5,142.5C 87.2837,140.633 89.2837,138.966 91.5,137.5C 92.4742,139.743 92.8076,142.076 92.5,144.5C 95.8333,144.5 99.1667,144.5 102.5,144.5C 102.683,146.936 102.016,149.103 100.5,151C 97.2369,151.064 94.2369,151.898 91.5,153.5C 91.0798,151.674 91.0798,149.674 91.5,147.5C 87.8542,148.283 84.1875,148.45 80.5,148C 75.2546,145.209 69.9213,142.709 64.5,140.5C 66.402,146.328 67.7353,152.328 68.5,158.5C 65.0014,157.866 64.0014,156.033 65.5,153C 64.552,152.517 63.552,152.351 62.5,152.5C 62.2317,149.881 62.565,147.381 63.5,145C 62.7471,143.513 61.9138,143.346 61,144.5C 57.7241,129.134 57.8908,113.801 61.5,98.5C 66.3442,83.9897 75.0109,72.3231 87.5,63.5C 90.1257,62.8653 92.6257,61.8653 95,60.5C 97.3019,61.9074 99.4686,61.7408 101.5,60C 100.027,59.2904 99.3601,58.1238 99.5,56.5C 102.082,56.0254 104.082,56.6921 105.5,58.5 Z"/></g>
<g><path style="opacity:1" fill="#1a2c77" d="M 213.5,53.5 C 214.124,53.9169 214.457,54.5836 214.5,55.5C 212.624,57.048 211.624,59.048 211.5,61.5C 214.32,61.9613 216.987,61.9613 219.5,61.5C 221.055,61.722 222.389,62.3887 223.5,63.5C 224.086,63.2907 224.586,62.9574 225,62.5C 226.128,64.3453 226.628,66.3453 226.5,68.5C 224.502,66.4002 222.335,64.4002 220,62.5C 213.443,69.3929 206.61,75.8929 199.5,82C 200.444,86.1509 201.444,90.3176 202.5,94.5C 201.518,97.5335 199.518,99.2002 196.5,99.5C 195.502,95.3418 194.002,91.3418 192,87.5C 191.014,86.8288 189.847,86.8288 188.5,87.5C 188.167,87.5 187.833,87.5 187.5,87.5C 187.539,86.4168 187.873,85.4168 188.5,84.5C 185.605,82.8849 182.605,81.5516 179.5,80.5C 178.655,79.3285 177.989,77.9952 177.5,76.5C 183.189,75.5155 188.855,75.3488 194.5,76C 200.691,68.3146 207.025,60.8146 213.5,53.5 Z"/></g>
<g><path style="opacity:0.004" fill="#fefffe" d="M 231.5,87.5 C 232.833,88.1667 232.833,88.1667 231.5,87.5 Z"/></g>
<g><path style="opacity:0.004" fill="#fefffe" d="M 252.5,89.5 C 253.833,90.1667 253.833,90.1667 252.5,89.5 Z"/></g>
<g><path style="opacity:0.004" fill="#00fffe" d="M 242.5,96.5 C 243.833,97.1667 243.833,97.1667 242.5,96.5 Z"/></g>
<g><path style="opacity:1" fill="#178ac9" d="M 172.5,84.5 C 171.393,89.0815 171.227,93.7481 172,98.5C 176.791,94.1982 181.958,90.5316 187.5,87.5C 187.833,87.5 188.167,87.5 188.5,87.5C 188.804,88.1499 189.137,88.8165 189.5,89.5C 188.253,92.3286 186.753,94.9952 185,97.5C 179.329,104.337 173.162,110.671 166.5,116.5C 166.297,114.956 165.63,113.622 164.5,112.5C 165.729,111.719 167.062,111.219 168.5,111C 167.62,109.644 167.286,108.144 167.5,106.5C 166.178,106.33 165.011,106.663 164,107.5C 163.535,106.069 162.701,104.903 161.5,104C 162.399,102.764 163.566,101.93 165,101.5C 167.001,104.333 169.501,106.666 172.5,108.5C 173.614,107.277 173.781,105.944 173,104.5C 171.54,102.062 170.04,99.7284 168.5,97.5C 169.284,92.7464 170.617,88.4131 172.5,84.5 Z"/></g>
<g><path style="opacity:0.004" fill="#fefffe" d="M 0.5,107.5 C 1.83333,108.167 1.83333,108.167 0.5,107.5 Z"/></g>
<g><path style="opacity:0.004" fill="#fefffe" d="M 43.5,114.5 C 44.8333,115.167 44.8333,115.167 43.5,114.5 Z"/></g>
<g><path style="opacity:0.004" fill="#fefffe" d="M 209.5,114.5 C 210.833,115.167 210.833,115.167 209.5,114.5 Z"/></g>
<g><path style="opacity:0.004" fill="#fefffe" d="M 45.5,115.5 C 46.8333,116.167 46.8333,116.167 45.5,115.5 Z"/></g>
<g><path style="opacity:0.004" fill="#fefffe" d="M 249.5,118.5 C 250.833,119.167 250.833,119.167 249.5,118.5 Z"/></g>
<g><path style="opacity:1" fill="#192e84" d="M 155.5,185.5 C 153.088,181.631 153.421,177.798 156.5,174C 153.219,169.055 154.386,165.555 160,163.5C 161.831,160.121 161.664,156.788 159.5,153.5C 159.897,152.014 160.23,150.514 160.5,149C 160.316,147.624 159.649,146.791 158.5,146.5C 169.831,133.667 180.998,120.667 192,107.5C 192.833,109 194,110.167 195.5,111C 200.886,136.507 193.552,158.174 173.5,176C 167.921,179.956 161.921,183.123 155.5,185.5 Z"/></g>
<g><path style="opacity:0.925" fill="#1a2965" d="M 61.5,98.5 C 57.8908,113.801 57.7241,129.134 61,144.5C 61.9138,143.346 62.7471,143.513 63.5,145C 62.565,147.381 62.2317,149.881 62.5,152.5C 63.552,152.351 64.552,152.517 65.5,153C 64.0014,156.033 65.0014,157.866 68.5,158.5C 69.1667,158.5 69.5,158.833 69.5,159.5C 69.5,160.167 69.5,160.833 69.5,161.5C 68.8595,163.332 67.8595,163.665 66.5,162.5C 55.2671,141.772 53.6005,120.439 61.5,98.5 Z"/></g>
<g><path style="opacity:0.004" fill="#fefffe" d="M 34.5,132.5 C 35.8333,133.167 35.8333,133.167 34.5,132.5 Z"/></g>
<g><path style="opacity:1" fill="#168dca" d="M 166.5,116.5 C 150.632,134.712 132.966,150.712 113.5,164.5C 114.29,163.206 115.29,162.039 116.5,161C 114.789,159.867 114.289,158.367 115,156.5C 117.498,157.121 119.832,156.455 122,154.5C 122.333,154.833 122.667,155.167 123,155.5C 123.827,154.338 124.66,153.171 125.5,152C 122.873,149.373 120.206,146.706 117.5,144C 119.92,144.025 122.253,144.691 124.5,146C 125.141,148.13 126.474,149.63 128.5,150.5C 131.77,148.733 134.603,146.4 137,143.5C 137.667,141.833 137.667,140.167 137,138.5C 135.323,139.901 133.656,141.235 132,142.5C 130.739,142.241 129.739,141.574 129,140.5C 128.39,137.173 127.89,133.839 127.5,130.5C 128.675,130.281 129.675,130.614 130.5,131.5C 129.319,133.198 129.319,134.865 130.5,136.5C 133.789,138.263 136.122,137.429 137.5,134C 139.473,133.505 141.473,133.338 143.5,133.5C 143.739,131.533 143.406,129.699 142.5,128C 143.416,127.626 144.25,127.126 145,126.5C 145.402,127.872 145.902,129.205 146.5,130.5C 145.94,134.09 147.107,134.424 150,131.5C 150.112,128.553 151.612,127.22 154.5,127.5C 153.874,123.625 155.541,121.791 159.5,122C 161.131,119.196 163.464,117.362 166.5,116.5 Z"/></g>
<g><path style="opacity:0.004" fill="#fefffe" d="M 249.5,136.5 C 250.833,137.167 250.833,137.167 249.5,136.5 Z"/></g>
<g><path style="opacity:0.004" fill="#00fffe" d="M 252.5,143.5 C 253.833,144.167 253.833,144.167 252.5,143.5 Z"/></g>
<g><path style="opacity:0.004" fill="#fefffe" d="M 49.5,149.5 C 50.8333,150.167 50.8333,150.167 49.5,149.5 Z"/></g>
<g><path style="opacity:0.004" fill="#fefffe" d="M 53.5,149.5 C 54.8333,150.167 54.8333,150.167 53.5,149.5 Z"/></g>
<g><path style="opacity:0.004" fill="#fefffe" d="M 153.5,150.5 C 152.833,149.167 152.833,149.167 153.5,150.5 Z"/></g>
<g><path style="opacity:1" fill="#1b2970" d="M 106.5,189.5 C 106.626,192.595 108.293,194.428 111.5,195C 116.519,195.411 121.519,195.911 126.5,196.5C 126.643,194.738 126.309,193.071 125.5,191.5C 127.527,191.527 129.527,191.527 131.5,191.5C 151.887,192.865 169.387,186.198 184,171.5C 184.464,170.906 184.631,170.239 184.5,169.5C 196.655,156.557 202.655,141.057 202.5,123C 202.653,118.032 201.986,113.199 200.5,108.5C 202.482,105.425 204.649,105.091 207,107.5C 211.867,149.445 195.201,179.112 157,196.5C 156.586,196.043 156.086,195.709 155.5,195.5C 139.449,200.885 123.449,200.718 107.5,195C 105.445,194.313 103.779,193.146 102.5,191.5C 103.577,190.295 104.91,189.628 106.5,189.5 Z"/></g>
<g><path style="opacity:0.004" fill="#fefffe" d="M 11.5,151.5 C 12.8333,152.167 12.8333,152.167 11.5,151.5 Z"/></g>
<g><path style="opacity:1" fill="#2483b5" d="M 50.5,175.5 C 46.0608,177.813 41.2275,178.813 36,178.5C 28.8216,179.109 22.8216,176.775 18,171.5C 17.5006,165.843 17.3339,160.176 17.5,154.5C 16.5,154.5 15.5,154.5 14.5,154.5C 13.2874,157.408 12.1207,160.408 11,163.5C 10.2917,164.381 9.45837,165.047 8.5,165.5C 12.7586,153.318 19.7586,142.985 29.5,134.5C 29.8333,134.833 30.1667,135.167 30.5,135.5C 21.8789,146.176 18.7122,158.176 21,171.5C 23.3419,174.754 26.5085,176.588 30.5,177C 37.2494,177.614 43.9161,177.114 50.5,175.5 Z"/></g>
<g><path style="opacity:0.004" fill="#fefffe" d="M 242.5,153.5 C 243.833,154.167 243.833,154.167 242.5,153.5 Z"/></g>
<g><path style="opacity:0.004" fill="#fefffe" d="M 246.5,163.5 C 247.833,164.167 247.833,164.167 246.5,163.5 Z"/></g>
<g><path style="opacity:0.004" fill="#fefffe" d="M 184.5,169.5 C 183.833,168.167 183.833,168.167 184.5,169.5 Z"/></g>
<g><path style="opacity:1" fill="#148dcd" d="M 50.5,175.5 C 61.0808,172.044 71.0808,167.211 80.5,161C 80,160.833 79.5,160.667 79,160.5C 75.7451,161.243 72.5784,161.576 69.5,161.5C 69.5,160.833 69.5,160.167 69.5,159.5C 77.0049,159.046 84.3383,158.046 91.5,156.5C 91.6495,157.552 91.4828,158.552 91,159.5C 90.6667,159.167 90.3333,158.833 90,158.5C 89.0975,159.701 87.9308,160.535 86.5,161C 82.8047,167.051 77.4714,170.051 70.5,170C 70.7358,171.451 70.7358,172.951 70.5,174.5C 71.4959,174.414 72.3292,174.748 73,175.5C 77.9526,171.192 82.786,170.692 87.5,174C 86.552,174.483 85.552,174.649 84.5,174.5C 84.5,175.5 84.5,176.5 84.5,177.5C 86.8194,178.167 89.1527,178.334 91.5,178C 96.0242,176.147 100.024,173.48 103.5,170C 104.793,169.51 106.127,169.343 107.5,169.5C 87.7474,184.205 65.7474,194.372 41.5,200C 28.7493,202.942 17.9159,199.775 9,190.5C 7.78739,188.075 6.62073,185.741 5.5,183.5C 5.06182,177.134 6.06182,171.134 8.5,165.5C 9.45837,165.047 10.2917,164.381 11,163.5C 12.1207,160.408 13.2874,157.408 14.5,154.5C 15.5,154.5 16.5,154.5 17.5,154.5C 17.3339,160.176 17.5006,165.843 18,171.5C 22.8216,176.775 28.8216,179.109 36,178.5C 41.2275,178.813 46.0608,177.813 50.5,175.5 Z"/></g>
<g><path style="opacity:1" fill="#0392dd" d="M 70.5,174.5 C 72.5769,177.913 75.0769,178.246 78,175.5C 78.9078,177.439 80.4078,178.439 82.5,178.5C 82.5,179.5 82.5,180.5 82.5,181.5C 81.5,181.5 80.5,181.5 79.5,181.5C 79.5,182.5 79.5,183.5 79.5,184.5C 77.1305,184.149 74.7972,183.982 72.5,184C 72.1667,184.333 71.8333,184.667 71.5,185C 72.9733,185.71 73.6399,186.876 73.5,188.5C 64.0702,191.442 54.7369,194.608 45.5,198C 37.8333,198.667 30.1667,198.667 22.5,198C 17.8049,196.65 14.1382,193.984 11.5,190C 13.1554,188.556 13.822,186.722 13.5,184.5C 10.6864,184.597 8.68638,183.431 7.5,181C 9.06671,177.702 9.90004,174.202 10,170.5C 10.3333,170.167 10.6667,169.833 11,169.5C 11.1922,171.577 11.6922,173.577 12.5,175.5C 13.6125,171.507 13.6125,167.507 12.5,163.5C 13.5,163.5 14.5,163.5 15.5,163.5C 16.2436,167.119 16.577,170.785 16.5,174.5C 17.8333,174.5 19.1667,174.5 20.5,174.5C 20.5,175.5 20.5,176.5 20.5,177.5C 26.0651,178.858 31.7318,179.691 37.5,180C 32.6789,181.279 27.6789,181.946 22.5,182C 21.7203,183.073 21.887,184.24 23,185.5C 26.0158,183.528 29.1825,183.195 32.5,184.5C 37.1133,183.721 41.78,183.221 46.5,183C 47.8333,182.333 47.8333,181.667 46.5,181C 49.8066,180.347 52.4733,178.681 54.5,176C 56.9712,175.294 59.3046,175.627 61.5,177C 60.5494,177.718 60.3828,178.551 61,179.5C 62.1145,178 62.9479,176.333 63.5,174.5C 65.8587,173.286 68.192,173.286 70.5,174.5 Z"/></g>
<g><path style="opacity:1" fill="#118cd5" d="M 158.5,146.5 C 159.649,146.791 160.316,147.624 160.5,149C 160.23,150.514 159.897,152.014 159.5,153.5C 161.664,156.788 161.831,160.121 160,163.5C 154.386,165.555 153.219,169.055 156.5,174C 153.421,177.798 153.088,181.631 155.5,185.5C 150.2,188.153 144.533,189.819 138.5,190.5C 139.806,189.533 140.473,188.199 140.5,186.5C 138.801,186.66 137.134,186.494 135.5,186C 132.696,184.362 130.029,182.529 127.5,180.5C 126.369,178.926 126.202,177.259 127,175.5C 127.561,174.978 128.228,174.645 129,174.5C 131.145,176.645 133.312,178.812 135.5,181C 138.091,181.301 138.925,180.134 138,177.5C 135.696,175.22 134.196,172.554 133.5,169.5C 140.167,163.167 146.833,156.833 153.5,150.5C 155.167,149.167 156.833,147.833 158.5,146.5 Z"/></g>
<g><path style="opacity:0.004" fill="#fefffe" d="M 5.5,183.5 C 4.83333,184.167 4.83333,184.167 5.5,183.5 Z"/></g>
<g><path style="opacity:0.004" fill="#fefffe" d="M 87.5,185.5 C 88.8333,186.167 88.8333,186.167 87.5,185.5 Z"/></g>
<g><path style="opacity:1" fill="#183082" d="M 133.5,169.5 C 134.196,172.554 135.696,175.22 138,177.5C 138.925,180.134 138.091,181.301 135.5,181C 133.312,178.812 131.145,176.645 129,174.5C 128.228,174.645 127.561,174.978 127,175.5C 126.202,177.259 126.369,178.926 127.5,180.5C 130.029,182.529 132.696,184.362 135.5,186C 137.134,186.494 138.801,186.66 140.5,186.5C 140.473,188.199 139.806,189.533 138.5,190.5C 136.393,191.468 134.059,191.802 131.5,191.5C 129.527,191.527 127.527,191.527 125.5,191.5C 126.309,193.071 126.643,194.738 126.5,196.5C 121.519,195.911 116.519,195.411 111.5,195C 108.293,194.428 106.626,192.595 106.5,189.5C 115.495,182.84 124.495,176.174 133.5,169.5 Z"/></g>
<g><path style="opacity:0.004" fill="#fefffe" d="M 224.5,186.5 C 225.833,187.167 225.833,187.167 224.5,186.5 Z"/></g>
<g><path style="opacity:0.004" fill="#fefffe" d="M 171.5,193.5 C 172.833,194.167 172.833,194.167 171.5,193.5 Z"/></g>
<g><path style="opacity:0.004" fill="#fefffe" d="M 67.5,195.5 C 68.8333,196.167 68.8333,196.167 67.5,195.5 Z"/></g>
<g><path style="opacity:0.004" fill="#fefffe" d="M 229.5,199.5 C 230.833,200.167 230.833,200.167 229.5,199.5 Z"/></g>
<g><path style="opacity:0.004" fill="#fefffe" d="M 104.5,200.5 C 105.833,201.167 105.833,201.167 104.5,200.5 Z"/></g>
<g><path style="opacity:0.004" fill="#fefffe" d="M 97.5,203.5 C 98.8333,204.167 98.8333,204.167 97.5,203.5 Z"/></g>
<g><path style="opacity:0.004" fill="#fefffe" d="M 249.5,206.5 C 250.833,207.167 250.833,207.167 249.5,206.5 Z"/></g>
<g><path style="opacity:0.004" fill="#fefffe" d="M 164.5,207.5 C 165.833,208.167 165.833,208.167 164.5,207.5 Z"/></g>
<g><path style="opacity:0.004" fill="#fefffe" d="M 195.5,207.5 C 196.833,208.167 196.833,208.167 195.5,207.5 Z"/></g>
<g><path style="opacity:0.004" fill="#fefffe" d="M 160.5,208.5 C 161.833,209.167 161.833,209.167 160.5,208.5 Z"/></g>
<g><path style="opacity:0.004" fill="#fefffe" d="M 42.5,211.5 C 43.8333,212.167 43.8333,212.167 42.5,211.5 Z"/></g>
<g><path style="opacity:0.004" fill="#fefffe" d="M 109.5,212.5 C 110.833,213.167 110.833,213.167 109.5,212.5 Z"/></g>
<g><path style="opacity:0.004" fill="#fefffe" d="M 228.5,213.5 C 229.833,214.167 229.833,214.167 228.5,213.5 Z"/></g>
<g><path style="opacity:0.004" fill="#fefffe" d="M 139.5,220.5 C 138.833,219.167 138.833,219.167 139.5,220.5 Z"/></g>
<g><path style="opacity:0.004" fill="#00fffe" d="M 167.5,220.5 C 166.833,219.167 166.833,219.167 167.5,220.5 Z"/></g>
</svg>
