<svg width="18" height="18" viewBox="0 0 18 18" fill="none" xmlns="http://www.w3.org/2000/svg">
<circle cx="9" cy="9" r="9" fill="#D8E6FB"/>
<g clip-path="url(#clip0_5_163)">
<path d="M8.99563 6.34413C8.47015 6.34403 7.95645 6.49976 7.51948 6.79163C7.08252 7.08349 6.74192 7.49838 6.54076 7.98383C6.3396 8.46927 6.28691 9.00347 6.38937 9.51886C6.49182 10.0342 6.74481 10.5077 7.11634 10.8793C7.48786 11.2509 7.96125 11.504 8.47662 11.6065C8.99199 11.7091 9.5262 11.6565 10.0117 11.4554C10.4972 11.2544 10.9121 10.9139 11.2041 10.477C11.496 10.0401 11.6519 9.52638 11.6519 9.00091C11.6512 8.2966 11.3711 7.62135 10.8731 7.12328C10.3751 6.62521 9.69993 6.345 8.99563 6.34413V6.34413Z" fill="#D69C59"/>
<path d="M13.2188 8.5321H12.5943C12.47 8.5321 12.3507 8.5815 12.2628 8.66942C12.1749 8.75734 12.1255 8.87659 12.1255 9.00093C12.1255 9.12527 12.1749 9.24452 12.2628 9.33244C12.3507 9.42037 12.47 9.46976 12.5943 9.46976H13.2188C13.3431 9.46976 13.4624 9.42037 13.5503 9.33244C13.6382 9.24452 13.6876 9.12527 13.6876 9.00093C13.6876 8.87659 13.6382 8.75734 13.5503 8.66942C13.4624 8.5815 13.3431 8.5321 13.2188 8.5321V8.5321Z" fill="#D69C59"/>
<path d="M8.99587 12.1248C8.87161 12.125 8.7525 12.1744 8.66467 12.2623C8.57684 12.3502 8.52745 12.4693 8.52734 12.5936V13.2187C8.52734 13.3429 8.5767 13.4621 8.66456 13.5499C8.75242 13.6378 8.87158 13.6872 8.99583 13.6872C9.12008 13.6872 9.23924 13.6378 9.32709 13.5499C9.41495 13.4621 9.46431 13.3429 9.46431 13.2187V12.5936C9.46422 12.4693 9.41485 12.3502 9.32703 12.2623C9.23921 12.1744 9.12011 12.125 8.99587 12.1248V12.1248Z" fill="#D69C59"/>
<path d="M5.87375 9.00093C5.87364 8.87668 5.82425 8.75754 5.73642 8.66965C5.64859 8.58176 5.52948 8.53229 5.40523 8.5321H4.78084C4.6565 8.5321 4.53725 8.5815 4.44933 8.66942C4.36141 8.75734 4.31201 8.87659 4.31201 9.00093C4.31201 9.12527 4.36141 9.24452 4.44933 9.33244C4.53725 9.42037 4.6565 9.46976 4.78084 9.46976H5.40523C5.52948 9.46957 5.64859 9.42011 5.73642 9.33222C5.82426 9.24433 5.87364 9.12519 5.87375 9.00093V9.00093Z" fill="#D69C59"/>
<path d="M8.99579 5.87523C9.12004 5.87505 9.23915 5.82558 9.32698 5.73769C9.41481 5.6498 9.4642 5.53067 9.46431 5.40641V4.78133C9.46431 4.65708 9.41495 4.53792 9.32709 4.45007C9.23924 4.36221 9.12008 4.31285 8.99583 4.31285C8.87158 4.31285 8.75242 4.36221 8.66456 4.45007C8.5767 4.53792 8.52734 4.65708 8.52734 4.78133V5.40641C8.52743 5.53066 8.57681 5.64979 8.66463 5.73768C8.75245 5.82558 8.87154 5.87504 8.99579 5.87523Z" fill="#D69C59"/>
<path d="M11.8688 6.79051L12.3107 6.34852C12.3544 6.30505 12.389 6.2534 12.4127 6.19652C12.4363 6.13964 12.4486 6.07866 12.4486 6.01706C12.4487 5.95546 12.4366 5.89445 12.413 5.83753C12.3895 5.78061 12.355 5.72889 12.3114 5.68533C12.2678 5.64177 12.2161 5.60723 12.1592 5.58369C12.1023 5.56014 12.0413 5.54805 11.9797 5.54811C11.9181 5.54817 11.8571 5.56038 11.8002 5.58404C11.7433 5.60769 11.6917 5.64234 11.6482 5.68598L11.2062 6.12798C11.1626 6.17145 11.1279 6.22311 11.1043 6.27998C11.0806 6.33686 11.0684 6.39784 11.0684 6.45944C11.0683 6.52104 11.0804 6.58205 11.1039 6.63897C11.1275 6.69589 11.162 6.74761 11.2056 6.79117C11.2491 6.83473 11.3009 6.86927 11.3578 6.89281C11.4147 6.91636 11.4757 6.92845 11.5373 6.92838C11.5989 6.92832 11.6599 6.91611 11.7168 6.89246C11.7736 6.8688 11.8253 6.83416 11.8688 6.79051V6.79051Z" fill="#D69C59"/>
<path d="M11.8687 11.2114C11.8252 11.1677 11.7736 11.1331 11.7167 11.1095C11.6598 11.0858 11.5988 11.0736 11.5372 11.0736C11.4757 11.0735 11.4147 11.0856 11.3577 11.1092C11.3008 11.1327 11.2491 11.1672 11.2056 11.2108C11.162 11.2543 11.1275 11.3061 11.1039 11.363C11.0804 11.4199 11.0683 11.4809 11.0684 11.5425C11.0684 11.6041 11.0806 11.665 11.1043 11.7219C11.1279 11.7788 11.1625 11.8304 11.2062 11.8739L11.6481 12.3159C11.6916 12.3595 11.7433 12.3942 11.8001 12.4178C11.857 12.4415 11.918 12.4537 11.9796 12.4537C12.0412 12.4538 12.1022 12.4417 12.1591 12.4181C12.216 12.3946 12.2677 12.3601 12.3113 12.3165C12.3548 12.2729 12.3893 12.2212 12.4129 12.1643C12.4364 12.1074 12.4485 12.0464 12.4485 11.9848C12.4484 11.9232 12.4362 11.8622 12.4126 11.8054C12.3889 11.7485 12.3543 11.6968 12.3107 11.6534L11.8687 11.2114Z" fill="#D69C59"/>
<path d="M6.1229 11.2113L5.6809 11.6533C5.63725 11.6968 5.60259 11.7484 5.57892 11.8053C5.55525 11.8622 5.54304 11.9232 5.54297 11.9848C5.5429 12.0464 5.55499 12.1074 5.57853 12.1644C5.60208 12.2213 5.63662 12.273 5.68018 12.3166C5.72375 12.3601 5.77547 12.3947 5.8324 12.4182C5.88934 12.4418 5.95035 12.4539 6.01196 12.4538C6.07356 12.4537 6.13455 12.4415 6.19143 12.4178C6.24831 12.3942 6.29996 12.3595 6.34343 12.3159L6.78544 11.8739C6.82906 11.8304 6.86369 11.7787 6.88734 11.7219C6.91098 11.665 6.92318 11.604 6.92323 11.5424C6.92329 11.4808 6.9112 11.4198 6.88765 11.3629C6.86411 11.306 6.82957 11.2543 6.78602 11.2107C6.74247 11.1672 6.69075 11.1326 6.63384 11.1091C6.57693 11.0856 6.51593 11.0735 6.45434 11.0735C6.39274 11.0736 6.33177 11.0858 6.2749 11.1094C6.21802 11.1331 6.16637 11.1677 6.1229 11.2113Z" fill="#D69C59"/>
<path d="M6.12311 6.79045C6.1666 6.83402 6.21825 6.86858 6.2751 6.89217C6.33196 6.91577 6.3929 6.92792 6.45446 6.92795C6.51601 6.92798 6.57697 6.91587 6.63385 6.89233C6.69072 6.86878 6.7424 6.83426 6.78593 6.79073C6.82945 6.74721 6.86397 6.69553 6.88752 6.63865C6.91106 6.58178 6.92317 6.52082 6.92314 6.45927C6.92311 6.39771 6.91096 6.33676 6.88737 6.27991C6.86377 6.22305 6.82921 6.17141 6.78564 6.12792L6.34364 5.68592C6.30018 5.64221 6.24853 5.60752 6.19164 5.58381C6.13475 5.56011 6.07374 5.54786 6.0121 5.54778C5.95047 5.54769 5.88943 5.55977 5.83247 5.58331C5.77551 5.60686 5.72376 5.64141 5.68018 5.68499C5.6366 5.72857 5.60205 5.78033 5.5785 5.83728C5.55496 5.89424 5.54288 5.95528 5.54297 6.01692C5.54306 6.07855 5.5553 6.13956 5.57901 6.19645C5.60271 6.25334 5.63741 6.30499 5.68111 6.34845L6.12311 6.79045Z" fill="#D69C59"/>
</g>
<defs>
<clipPath id="clip0_5_163">
<rect width="10" height="10" fill="white" transform="translate(4 4)"/>
</clipPath>
</defs>
</svg>
